 <svg width="100" height="90" viewBox="0 0 214 154" fill="none" xmlns="http://www.w3.org/2000/svg">
                <path fill-rule="evenodd" clip-rule="evenodd" d="M90.3912 6.46033C90.3076 7.59677 89.9309 8.60571 89.2613 9.48679C85.8249 12.9922 82.3724 12.9922 78.904 9.48679C78.4761 8.63825 78.162 7.75566 77.9624 6.83864C77.9624 6.208 77.9624 5.57774 77.9624 4.9471C79.7917 0.184972 83.0559 -1.1391 87.7548 0.974878C89.5984 2.34548 90.477 4.17384 90.3912 6.46033Z" fill="#0AA19B"/>
                <path fill-rule="evenodd" clip-rule="evenodd" d="M77.9621 6.83875C78.1617 7.75576 78.4759 8.63835 78.9037 9.4869C82.3721 12.9923 85.8246 12.9923 89.261 9.4869C95.6532 12.6291 100.424 17.4208 103.573 23.8626C103.573 24.2409 103.573 24.6192 103.573 24.9975C85.8597 23.8811 68.221 22.8722 50.6565 21.971C50.4746 21.6124 50.4121 21.2341 50.4682 20.8361C56.0766 14.6758 62.8559 10.3252 70.8062 7.78451C73.1635 7.25223 75.5487 6.93673 77.9621 6.83875Z" fill="#FDFEFE"/>
                <path fill-rule="evenodd" clip-rule="evenodd" d="M45.1955 21.5927C27.7523 39.9962 17.8345 61.9381 15.4418 87.4182C15.4934 84.851 15.1797 82.3292 14.5002 79.852C9.4048 59.6947 4.57152 39.4553 0 19.1337C15.0753 19.7091 30.1405 20.5289 45.1955 21.5927Z" fill="#E6E7E7"/>
                <path fill-rule="evenodd" clip-rule="evenodd" d="M50.4685 20.836C50.4124 21.234 50.4749 21.6123 50.6569 21.9709C68.2213 22.872 85.86 23.881 103.573 24.9974C103.573 24.6191 103.573 24.2408 103.573 23.8625C104.92 26.0971 105.987 28.4933 106.775 31.0503C110.209 42.2361 111.276 53.5853 109.976 65.0979C105.601 50.0458 96.0599 39.7684 81.3521 34.2659C64.6415 28.8875 49.3251 31.4729 35.4034 42.0212C35.8519 40.7391 36.4169 39.4782 37.0982 38.2381C40.7843 31.8266 45.2409 26.0256 50.4685 20.836Z" fill="#E6E6E7"/>
                <path fill-rule="evenodd" clip-rule="evenodd" d="M90.3909 6.46033C100.62 10.3663 107.839 17.4278 112.047 27.6455C116.515 39.5845 118.21 51.9427 117.132 64.7196C114.883 65.0185 112.748 65.6491 110.729 66.6112C110.275 66.2037 110.024 65.6995 109.976 65.0979C111.275 53.5853 110.208 42.2361 106.774 31.0503C105.987 28.4933 104.92 26.0971 103.573 23.8625C100.424 17.4206 95.6532 12.629 89.261 9.48678C89.9307 8.60571 90.3073 7.59676 90.3909 6.46033Z" fill="#59D2CC"/>
                <path fill-rule="evenodd" clip-rule="evenodd" d="M110.729 81.7433C110.173 83.7302 109.357 85.6217 108.281 87.4179C108.137 87.2076 107.948 87.0816 107.716 87.0396C107.253 86.3598 107.002 85.6032 106.963 84.7698C106.335 84.7698 105.708 84.7698 105.08 84.7698C105.26 86.7831 105.386 88.8006 105.456 90.8227C105.083 90.7576 104.832 90.884 104.703 91.201C98.2427 95.3457 91.5892 95.6609 84.7417 92.1468C83.5572 91.3985 82.5527 90.4527 81.7287 89.3095C80.2323 90.5601 78.8512 91.9474 77.5858 93.4708C76.9941 93.7769 76.3662 93.9032 75.7026 93.8492C75.9538 92.3359 76.2047 90.8227 76.4559 89.3095C74.5588 89.2766 72.6756 89.4025 70.8064 89.6878C70.2426 93.7024 69.866 97.7374 69.6765 101.794C56.6199 101.794 43.5637 101.794 30.5071 101.794C30.5071 101.037 30.5071 100.28 30.5071 99.5238C32.3613 99.7617 33.5537 99.0051 34.0851 97.2539C34.3363 82.8782 34.3363 68.5026 34.0851 54.1269C33.2271 52.8913 32.0343 52.2611 30.5071 52.2354C30.2054 51.652 30.08 51.0217 30.1305 50.3438C30.5071 50.3438 30.8837 50.3438 31.2604 50.3438C37.6555 50.8023 44.0582 50.8023 50.4685 50.3438C50.4685 50.9745 50.4685 51.6047 50.4685 52.2354C48.1665 51.8862 46.5971 52.7688 45.7606 54.8835C45.5723 68.1235 45.5094 81.3643 45.5723 94.6058C51.8759 94.7783 58.1528 94.5891 64.4037 94.0383C65.685 93.5087 66.7524 92.6889 67.6051 91.5793C68.7493 89.5153 69.5025 87.3714 69.8649 85.1481C67.9968 87.9041 65.4233 89.6064 62.144 90.2552C56.4633 91.6379 52.2578 89.8096 49.5269 84.7698C48.4983 79.0759 50.6952 75.3556 56.1179 73.6097C60.1407 72.8527 64.1582 72.0961 68.17 71.3399C69.3639 69.9568 69.6152 68.3808 68.9233 66.611C68.3655 66.2403 67.8631 65.7988 67.4168 65.287C64.8112 64.7002 62.1748 64.5742 59.5076 64.9086C57 65.7247 55.1168 67.3007 53.8581 69.6375C53.4103 69.9889 52.9083 70.1149 52.3516 70.0158C52.5188 67.2439 52.6442 64.4698 52.7282 61.693C59.2115 59.9381 65.7396 59.7489 72.3129 61.1256C73.772 61.6669 75.0273 62.4863 76.0792 63.5846C76.0299 63.916 76.1553 64.1683 76.4559 64.3412C76.9541 60.2456 76.9541 56.2102 76.4559 52.2354C76.341 49.6008 74.9599 48.4659 72.3129 48.8306C72.3129 48.3263 72.3129 47.8216 72.3129 47.3174C77.0641 46.5971 81.7095 45.4621 86.2482 43.9126C86.1853 50.9756 86.2482 58.0371 86.4365 65.0978C92.4927 59.5363 98.958 59.0948 105.833 63.7737C107.05 64.8054 108.054 66.0035 108.846 67.3676C104.778 70.8428 104.088 74.8778 106.775 79.4735C107.899 80.574 109.217 81.3306 110.729 81.7433Z" fill="#FBFDFD"/>
                <path fill-rule="evenodd" clip-rule="evenodd" d="M109.976 65.0979C110.024 65.6994 110.275 66.2037 110.729 66.6111C112.749 65.6491 114.883 65.0184 117.132 64.7196C120.024 64.7559 122.912 64.8823 125.794 65.0979C125.794 64.4673 125.794 63.837 125.794 63.2064C126.924 63.2064 128.054 63.2064 129.184 63.2064C129.062 61.7968 129.188 60.4095 129.561 59.045C132.065 57.9834 134.199 56.4702 135.963 54.5053C136.465 54.5053 136.968 54.5053 137.47 54.5053C137.347 57.4758 137.473 60.3759 137.846 63.2064C140.106 63.2064 142.366 63.2064 144.626 63.2064C144.564 64.3481 144.627 65.483 144.814 66.6111C151.874 61.5929 159.218 61.1514 166.847 65.287C169.995 67.3897 172.192 70.227 173.438 73.799C173.689 71.4031 173.689 69.0069 173.438 66.6111C172.798 66.2684 172.107 66.1424 171.366 66.2328C171.366 65.7285 171.366 65.2239 171.366 64.7196C174.606 64.4514 177.745 63.8207 180.782 62.828C180.72 64.221 180.783 65.6078 180.971 66.9894C183.271 63.7867 186.347 62.6518 190.198 63.5847C190.449 64.5936 190.7 65.6022 190.951 66.6111C196.361 63.7806 201.885 63.5915 207.523 66.0437C212.304 69.5339 214.438 74.2628 213.926 80.2302C207.021 80.2302 200.116 80.2302 193.211 80.2302C194.011 85.9282 197.275 88.8283 203.003 88.9312C206.762 89.0273 210.089 87.8924 212.984 85.5265C212.884 87.6673 212.445 89.748 211.666 91.7685C203.912 96.2935 196.38 96.0415 189.068 91.0119C184.555 86.2332 183.111 80.6217 184.737 74.1773C185.293 72.3028 186.234 70.6635 187.562 69.2593C184.414 68.0975 182.343 69.1061 181.347 72.2857C181.096 76.6994 181.096 81.1128 181.347 85.5265C182.043 86.4878 182.985 86.8661 184.172 86.6614C184.172 87.1657 184.172 87.6703 184.172 88.1746C180.157 87.7173 176.139 87.7173 172.12 88.1746C168.39 93.5159 163.243 96.1641 156.678 96.1191C154.611 96.1701 152.602 95.855 150.652 95.1733C148.382 94.161 146.248 92.9629 144.249 91.5794C140.931 92.8516 137.541 93.0408 134.08 92.1469C131.986 91.1776 130.542 89.6016 129.749 87.418C128.933 90.443 127.113 92.5864 124.288 93.8492C119.754 95.3768 115.109 95.7551 110.353 94.9842C108.887 94.4224 107.381 93.8549 105.833 93.2818C105.485 92.5096 105.36 91.6899 105.456 90.8228C105.386 88.8007 105.261 86.7832 105.08 84.7699C105.708 84.7699 106.335 84.7699 106.963 84.7699C107.002 85.6033 107.253 86.3599 107.716 87.0397C108.627 88.4565 109.882 89.4654 111.482 90.0662C114.409 91.4999 117.422 91.5631 120.522 90.2553C122.002 88.4633 122.002 86.6977 120.522 84.959C118.208 84.0027 115.823 83.3092 113.366 82.8783C112.518 82.4262 111.639 82.0479 110.729 81.7434C109.217 81.3307 107.899 80.5741 106.775 79.4736C104.088 74.8779 104.778 70.8429 108.846 67.3677C108.054 66.0036 107.05 64.8055 105.833 63.7738C98.958 59.0949 92.4928 59.5364 86.4366 65.0979C86.2483 58.0372 86.1854 50.9757 86.2483 43.9127C81.7095 45.4622 77.0642 46.5972 72.313 47.3175C72.313 47.8217 72.313 48.3264 72.313 48.8307C74.96 48.466 76.3411 49.6009 76.4559 52.2354C76.5791 56.087 76.4537 59.8701 76.0793 63.5847C75.0274 62.4864 73.7721 61.667 72.313 61.1257C65.7397 59.749 59.2116 59.9382 52.7283 61.6931C52.6443 64.4699 52.5189 67.244 52.3517 70.0159C52.9083 70.115 53.4104 69.989 53.8582 69.6376C55.1169 67.3008 57 65.7247 59.5076 64.9087C62.1749 64.5743 64.8113 64.7003 67.4168 65.287C67.8631 65.7989 68.3656 66.2404 68.9233 66.6111C69.6152 68.3808 69.364 69.9569 68.1701 71.34C64.1582 72.0962 60.1407 72.8528 56.118 73.6098C50.6953 75.3557 48.4984 79.076 49.5269 84.7699C52.2579 89.8097 56.4633 91.638 62.144 90.2553C65.4233 89.6065 67.9968 87.9041 69.8649 85.1482C69.5026 87.3715 68.7493 89.5153 67.6051 91.5794C66.7525 92.689 65.6851 93.5088 64.4038 94.0384C58.1529 94.5892 51.876 94.7784 45.5723 94.6058C45.5094 81.3643 45.5723 68.1236 45.7607 54.8836C46.5972 52.7689 48.1666 51.8863 50.4685 52.2354C50.4685 51.6048 50.4685 50.9745 50.4685 50.3439C44.0583 50.8024 37.6556 50.8024 31.2604 50.3439C32.3255 47.3905 33.7066 44.6163 35.4034 42.0212C49.3251 31.4728 64.6415 28.8875 81.3521 34.2659C96.0599 39.7683 105.601 50.0458 109.976 65.0979Z" fill="#0CA29B"/>
                <path fill-rule="evenodd" clip-rule="evenodd" d="M76.4559 52.2354C76.9541 56.2103 76.9541 60.2457 76.4559 64.3412C76.1553 64.1684 76.0299 63.916 76.0792 63.5846C76.4536 59.87 76.579 56.087 76.4559 52.2354Z" fill="#98D8DC"/>
                <path fill-rule="evenodd" clip-rule="evenodd" d="M135.963 54.5052C136.497 54.1455 137.125 54.0195 137.846 54.1269C137.846 57.1534 137.846 60.1798 137.846 63.2063C137.473 60.3758 137.347 57.4757 137.47 54.5052C136.967 54.5052 136.465 54.5052 135.963 54.5052Z" fill="#74CAC4"/>
                <path fill-rule="evenodd" clip-rule="evenodd" d="M137.846 67.746C139.797 67.2486 141.806 67.2486 143.872 67.746C143.825 67.9757 143.7 68.1016 143.496 68.1243C141.686 67.7509 139.803 67.6246 137.846 67.746Z" fill="#8CD2D6"/>
                <path fill-rule="evenodd" clip-rule="evenodd" d="M91.5211 66.9893C96.2542 66.5172 99.3297 68.5347 100.748 73.0422C101.837 77.8297 101.209 82.3694 98.8653 86.6613C96.0922 89.1271 93.0163 89.5686 89.6379 87.9854C87.818 86.1574 86.7511 83.9507 86.4366 81.365C86.049 78.0302 86.2999 74.7514 87.1898 71.529C88.0866 69.4317 89.5302 67.9185 91.5211 66.9893Z" fill="#0BA19B"/>
                <path fill-rule="evenodd" clip-rule="evenodd" d="M137.846 67.7461C139.803 67.6247 141.686 67.751 143.496 68.1244C141.624 69.9914 140.431 72.2612 139.918 74.934C139.391 78.9716 139.831 82.8807 141.236 86.6615C139.559 86.9513 138.492 86.1947 138.034 84.3916C137.846 78.8445 137.783 73.2959 137.846 67.7461Z" fill="#F6FBFA"/>
                <path fill-rule="evenodd" clip-rule="evenodd" d="M153.665 68.5026C159.537 67.9022 162.99 70.5504 164.022 76.447C164.55 80.221 164.173 83.8778 162.892 87.4179C160.258 90.2518 157.182 90.8193 153.665 89.1203C149.913 84.7032 148.594 79.5961 149.71 73.7989C150.399 71.5347 151.717 69.7692 153.665 68.5026Z" fill="#FCFDFD"/>
                <path fill-rule="evenodd" clip-rule="evenodd" d="M196.977 69.2594C201.941 68.5736 204.703 70.7174 205.263 75.6907C201.245 75.6907 197.228 75.6907 193.211 75.6907C193.41 72.892 194.665 70.7481 196.977 69.2594Z" fill="#FAFCFD"/>
                <path fill-rule="evenodd" clip-rule="evenodd" d="M119.391 69.2593C119.015 69.2593 118.638 69.2593 118.261 69.2593C118.648 71.5654 119.15 73.8353 119.768 76.0688C118.327 75.7786 116.946 75.4003 115.625 74.9339C115.681 73.014 115.932 71.1224 116.378 69.2593C117.383 68.755 118.387 68.755 119.391 69.2593Z" fill="#DFE5E6"/>
                <path fill-rule="evenodd" clip-rule="evenodd" d="M77.9621 4.94727C77.9621 5.5779 77.9621 6.20816 77.9621 6.8388C75.5487 6.93678 73.1635 7.25229 70.8062 7.78457C62.8559 10.3253 56.0766 14.6758 50.4682 20.8362C45.2406 26.0258 40.784 31.8267 37.0979 38.2383C36.4166 39.4784 35.8516 40.7393 35.4031 42.0214C33.7063 44.6166 32.3252 47.3907 31.2601 50.3441C30.8835 50.3441 30.5069 50.3441 30.1302 50.3441C30.0798 51.0221 30.2052 51.6523 30.5069 52.2357C25.2062 64.6188 22.4444 77.6076 22.221 91.2013C21.241 104.753 23.8146 117.615 29.9419 129.789C32.7331 134.358 36.3111 138.204 40.6759 141.327C44.4369 143.406 48.4544 144.604 52.728 144.921C62.3237 144.513 70.7354 141.171 77.9621 134.896C79.2931 133.432 80.7368 132.108 82.2934 130.924C83.6805 129.341 84.9987 127.702 86.248 126.006C88.7748 123.338 91.0346 120.438 93.0273 117.304C94.8242 113.818 96.7073 110.413 98.6767 107.09C101.093 102.059 103.228 96.8895 105.079 91.5796C105.033 91.35 104.907 91.224 104.703 91.2013C104.832 90.8843 105.082 90.7579 105.456 90.823C105.36 91.6901 105.485 92.5099 105.833 93.282C107.381 93.8551 108.887 94.4226 110.352 94.9844C109.881 95.0135 109.568 95.2658 109.411 95.741C107.771 100.051 105.888 104.212 103.761 108.225C103.413 108.432 103.099 108.684 102.82 108.982C100.717 113.082 98.3317 116.991 95.6637 120.709C91.1479 126.055 86.2517 131.036 80.9752 135.652C73.9981 141.236 66.0889 144.893 57.2475 146.623C53.4741 146.875 49.7078 146.812 45.9487 146.434C42.2268 145.688 38.7117 144.364 35.4031 142.462C32.9165 140.078 30.2801 137.871 27.4938 135.842C25.8822 133.023 24.1874 130.249 22.4093 127.519C17.3633 117.288 14.9152 106.443 15.0651 94.9844C15.1491 92.4584 15.2745 89.9362 15.4417 87.4182C17.8344 61.9381 27.7522 39.9963 45.1954 21.5928C51.9243 14.9947 59.7081 10.0139 68.5464 6.64965C71.6284 5.75533 74.7672 5.18787 77.9621 4.94727Z" fill="#5BD2CD"/>
                <path fill-rule="evenodd" clip-rule="evenodd" d="M119.391 69.2595C123.071 69.3026 125.456 71.0681 126.547 74.5558C127.426 74.5558 128.305 74.5558 129.184 74.5558C129.246 76.829 129.183 79.0989 128.996 81.3653C128.159 79.8944 126.966 78.8227 125.418 78.1497C123.508 77.4063 121.625 76.7129 119.768 76.069C119.15 73.8355 118.648 71.5656 118.262 69.2595C118.638 69.2595 119.015 69.2595 119.391 69.2595Z" fill="#F7FBFB"/>
                <path fill-rule="evenodd" clip-rule="evenodd" d="M116.378 69.2595C115.932 71.1226 115.681 73.0142 115.625 74.9341C112.939 74.202 112.311 72.626 113.742 70.2052C114.552 69.6714 115.431 69.3559 116.378 69.2595Z" fill="#55D1CB"/>
                <path fill-rule="evenodd" clip-rule="evenodd" d="M68.5468 75.3123C68.9234 75.3123 69.3 75.3123 69.6766 75.3123C70.1391 82.2259 67.0003 85.3155 60.2609 84.5808C58.5077 83.4849 57.9428 81.9089 58.5661 79.852C59.5713 78.4931 60.8895 77.5474 62.5207 77.0147C64.5406 76.3197 66.5491 75.7523 68.5468 75.3123Z" fill="#0FA29B"/>
                <path fill-rule="evenodd" clip-rule="evenodd" d="M113.365 82.8783C115.822 83.3092 118.208 84.0026 120.521 84.959C122.002 86.6977 122.002 88.4632 120.521 90.2553C117.422 91.5631 114.409 91.4999 111.482 90.0661C112.348 87.738 112.975 85.3422 113.365 82.8783Z" fill="#E5E6E6"/>
                <path fill-rule="evenodd" clip-rule="evenodd" d="M110.729 81.7433C111.638 82.0479 112.518 82.4262 113.365 82.8783C112.976 85.3422 112.348 87.738 111.482 90.0661C109.882 89.4654 108.627 88.4564 107.716 87.0396C107.948 87.0816 108.137 87.2076 108.281 87.418C109.357 85.6218 110.173 83.7302 110.729 81.7433Z" fill="#5AD2CD"/>
                <path fill-rule="evenodd" clip-rule="evenodd" d="M30.5069 52.2354C32.0341 52.2611 33.2269 52.8914 34.0849 54.1269C34.3361 68.5026 34.3361 82.8783 34.0849 97.254C33.5535 99.0051 32.3611 99.7618 30.5069 99.5238C30.5069 100.28 30.5069 101.037 30.5069 101.794C43.5635 101.794 56.6197 101.794 69.6763 101.794C69.8658 97.7374 70.2424 93.7024 70.8062 89.6878C72.6754 89.4026 74.5586 89.2766 76.4557 89.3095C76.2045 90.8227 75.9536 92.336 75.7024 93.8492C76.366 93.9033 76.9939 93.7769 77.5855 93.4709C78.851 91.9475 80.2321 90.5602 81.7285 89.3095C82.5525 90.4528 83.557 91.3985 84.7415 92.1468C91.589 95.6609 98.2425 95.3458 104.703 91.2011C104.907 91.2237 105.033 91.3497 105.079 91.5794C103.228 96.8893 101.093 102.059 98.6768 107.09C86.4887 118.35 72.1768 122.574 55.7411 119.763C41.8724 116.557 31.3897 108.801 24.2925 96.4974C23.4903 94.7621 22.7999 92.9969 22.2211 91.2011C22.4444 77.6073 25.2062 64.6185 30.5069 52.2354Z" fill="#05A19B"/>
                <path fill-rule="evenodd" clip-rule="evenodd" d="M124.288 93.8491C125.228 96.5831 126.045 99.4836 126.736 102.55C127.021 103.409 126.958 104.228 126.547 105.009C116.281 110.351 105.986 115.584 95.6638 120.709C98.3319 116.991 100.717 113.082 102.82 108.981C103.099 108.684 103.413 108.432 103.761 108.225C105.888 104.212 107.771 100.051 109.411 95.7407C109.568 95.2655 109.882 95.0132 110.352 94.984C115.109 95.755 119.754 95.3767 124.288 93.8491Z" fill="#E6E7E7"/>
                <path fill-rule="evenodd" clip-rule="evenodd" d="M22.2214 91.2011C22.8003 92.9969 23.4907 94.7621 24.2929 96.4974C31.3901 108.801 41.8728 116.557 55.7414 119.763C72.1771 122.574 86.489 118.35 98.6771 107.09C96.7077 110.413 94.8246 113.818 93.0277 117.304C91.035 120.438 88.7752 123.338 86.2484 126.005C84.7125 126.46 83.206 127.028 81.7288 127.708C71.628 133.222 61.459 138.645 51.2219 143.975C51.9514 144.021 52.4535 144.336 52.7284 144.921C48.4548 144.604 44.4373 143.406 40.6763 141.327C36.3115 138.204 32.7335 134.358 29.9423 129.788C23.815 117.615 21.2414 104.753 22.2214 91.2011Z" fill="#E6E6E7"/>
                <path fill-rule="evenodd" clip-rule="evenodd" d="M86.2482 126.005C84.9989 127.702 83.6807 129.341 82.2936 130.923C80.737 132.108 79.2934 133.432 77.9623 134.896C70.7356 141.171 62.324 144.513 52.7282 144.921C52.4533 144.336 51.9512 144.021 51.2217 143.975C61.4588 138.645 71.6278 133.222 81.7286 127.708C83.2058 127.028 84.7123 126.46 86.2482 126.005Z" fill="#FBFDFD"/>
                <path fill-rule="evenodd" clip-rule="evenodd" d="M27.4943 135.841C30.2806 137.87 32.917 140.078 35.4035 142.462C38.7122 144.363 42.2272 145.687 45.9491 146.434C41.3987 149.108 36.7537 151.631 32.0138 154C30.2745 148.003 28.768 141.95 27.4943 135.841Z" fill="#E7E7E7"/>
                </svg>